<?xml version="1.0" encoding="UTF-8"?>
<svg version="1.1" xmlns="http://www.w3.org/2000/svg" width="204" height="192">
<path d="M0 0 C67.32 0 134.64 0 204 0 C204 63.36 204 126.72 204 192 C136.68 192 69.36 192 0 192 C0 128.64 0 65.28 0 0 Z " fill="#F7F8F9" transform="translate(0,0)"/>
<path d="M0 0 C1.64198364 -0.00574036 1.64198364 -0.00574036 3.31713867 -0.01159668 C5.63038045 -0.01431736 7.94365292 -0.00694534 10.25683594 0.00976562 C13.79952522 0.0311716 17.34018636 0.00996774 20.8828125 -0.015625 C23.13021281 -0.01298175 25.37761187 -0.00785684 27.625 0 C28.68549561 -0.00809692 29.74599121 -0.01619385 30.83862305 -0.02453613 C37.89262781 0.06550153 37.89262781 0.06550153 41.47851562 1.88110352 C43.68057034 6.25579311 43.3814934 10.63798359 43.34375 15.46484375 C43.3475769 16.53493179 43.35140381 17.60501984 43.35534668 18.70753479 C43.35806738 20.96950217 43.35069521 23.23150092 43.33398438 25.4934082 C43.31259921 28.95270137 43.33377115 32.40991256 43.359375 35.86914062 C43.35673134 38.06771291 43.35160558 40.26628391 43.34375 42.46484375 C43.35184692 43.49830429 43.35994385 44.53176483 43.36828613 45.59654236 C43.3144278 49.73023369 43.09920181 52.85374383 41.47851562 56.68359375 C37.14787659 59.68490109 32.76864745 59.22446161 27.625 59.16015625 C26.53034424 59.16256821 25.43568848 59.16498016 24.30786133 59.16746521 C21.99459204 59.16648616 19.68129949 59.15307908 17.36816406 59.12817383 C13.82536302 59.09387453 10.2850566 59.10751115 6.7421875 59.12695312 C4.49478104 59.12005463 2.24738102 59.11038223 0 59.09765625 C-1.59074341 59.10509605 -1.59074341 59.10509605 -3.21362305 59.11268616 C-7.19664362 59.04883227 -10.26629667 58.99294833 -13.85351562 57.19506836 C-16.08065543 52.74771799 -15.75617022 48.24486766 -15.71875 43.34375 C-15.7225769 42.24909424 -15.72640381 41.15443848 -15.73034668 40.02661133 C-15.73306736 37.71336955 -15.72569534 35.40009708 -15.70898438 33.08691406 C-15.6875784 29.54422478 -15.70878226 26.00356364 -15.734375 22.4609375 C-15.73173175 20.21353719 -15.72660684 17.96613813 -15.71875 15.71875 C-15.72684692 14.65825439 -15.73494385 13.59775879 -15.74328613 12.50512695 C-15.69242458 8.5203763 -15.64992625 5.45542544 -13.85351562 1.86523438 C-9.4045431 -0.36088155 -4.90225861 -0.03742893 0 0 Z M-13.1875 5.53125 C-13.44906261 8.26031362 -13.53671131 10.7558599 -13.48046875 13.48046875 C-13.47622391 14.25308548 -13.47197906 15.02570221 -13.46760559 15.82173157 C-13.45082183 18.28775992 -13.41317147 20.75296896 -13.375 23.21875 C-13.35995271 24.89126423 -13.34626438 26.56379128 -13.33398438 28.23632812 C-13.30091946 32.33495078 -13.24914028 36.43296151 -13.1875 40.53125 C-9.26231749 37.22842876 -5.44835699 33.90668357 -1.875 30.21875 C0.89576006 27.36089336 2.4572801 25.78938712 6.4375 25.03125 C10.88446128 25.69005908 12.73158976 27.72939784 15.8828125 30.8046875 C17.77752419 32.49995585 19.49708778 33.51246862 21.8125 34.53125 C22.4725 33.70625 23.1325 32.88125 23.8125 32.03125 C26.97750619 29.39374484 28.57340941 28.97321939 32.65234375 28.96484375 C35.8353032 29.79943529 38.16025782 31.63355752 40.8125 33.53125 C40.88671454 29.59864056 40.94113136 25.66630278 40.97729492 21.7331543 C40.99978333 19.73797299 41.03790198 17.74298787 41.07617188 15.74804688 C41.09067383 13.86762695 41.09067383 13.86762695 41.10546875 11.94921875 C41.12903442 10.21321411 41.12903442 10.21321411 41.15307617 8.44213867 C41.06324382 5.58233137 41.06324382 5.58233137 39.58491516 3.87358093 C37.29508904 2.13939105 35.96926455 2.15121045 33.11328125 2.14306641 C32.16219482 2.13360992 31.2111084 2.12415344 30.23120117 2.1144104 C29.20615479 2.12048309 28.1811084 2.12655579 27.125 2.1328125 C26.07094971 2.12994232 25.01689941 2.12707214 23.9309082 2.12411499 C21.70165469 2.12207287 19.47238333 2.12761302 17.24316406 2.14013672 C13.82576532 2.15618769 10.40954935 2.14029241 6.9921875 2.12109375 C4.82812238 2.12307615 2.664058 2.12691977 0.5 2.1328125 C-0.52504639 2.12673981 -1.55009277 2.12066711 -2.60620117 2.1144104 C-4.03283081 2.12859512 -4.03283081 2.12859512 -5.48828125 2.14306641 C-6.32528564 2.14545319 -7.16229004 2.14783997 -8.0246582 2.15029907 C-10.71202289 2.62363654 -11.59944292 3.33486308 -13.1875 5.53125 Z M-5.125 34.34375 C-6.29385742 35.44106445 -6.29385742 35.44106445 -7.48632812 36.56054688 C-11.3834652 40.47817722 -13.69888474 43.25912132 -13.87890625 48.91796875 C-13.75366362 51.59273643 -13.58642339 53.01407592 -11.94517517 55.14183044 C-9.66730394 56.94245828 -8.37221359 56.91120985 -5.48828125 56.91943359 C-4.53719482 56.92889008 -3.5861084 56.93834656 -2.60620117 56.9480896 C-1.58115479 56.94201691 -0.5561084 56.93594421 0.5 56.9296875 C1.55405029 56.93255768 2.60810059 56.93542786 3.6940918 56.93838501 C5.92334531 56.94042713 8.15261667 56.93488698 10.38183594 56.92236328 C13.79923468 56.90631231 17.21545065 56.92220759 20.6328125 56.94140625 C22.79687762 56.93942385 24.960942 56.93558023 27.125 56.9296875 C28.15004639 56.93576019 29.17509277 56.94183289 30.23120117 56.9480896 C31.65783081 56.93390488 31.65783081 56.93390488 33.11328125 56.91943359 C33.95028564 56.91704681 34.78729004 56.91466003 35.6496582 56.91220093 C38.3443739 56.43756869 39.22045409 55.73487548 40.8125 53.53125 C41.19339821 50.65827358 41.36767582 48.09227157 41.375 45.21875 C41.41173828 44.47173828 41.44847656 43.72472656 41.48632812 42.95507812 C41.52035886 38.64829959 41.01805363 36.20683291 38 33.03125 C35.5595796 30.78187261 34.70905925 30.51128775 31.25 29.84375 C27.0235757 30.68903486 25.51512776 32.25533756 22.8125 35.53125 C24.33958963 38.96720166 26.41177045 41.65037454 28.8125 44.53125 C23.28066702 39.86473167 18.26941477 34.93137908 13.40234375 29.5703125 C5.4064599 23.27491074 0.79134551 28.25503452 -5.125 34.34375 Z " fill="#D1DBE6" transform="translate(88.1875,66.46875)"/>
<path d="M0 0 C1.05975037 0.02785583 2.11950073 0.05571167 3.21136475 0.08441162 C6.59491298 0.17775303 9.9767661 0.29945586 13.359375 0.421875 C15.65359094 0.49015138 17.94786267 0.55658019 20.2421875 0.62109375 C25.86540635 0.78325709 31.48749626 0.96871141 37.109375 1.171875 C37.109375 1.501875 37.109375 1.831875 37.109375 2.171875 C36.23280746 2.18400528 36.23280746 2.18400528 35.33853149 2.19638062 C29.27168525 2.28225064 23.20517241 2.38174575 17.13867188 2.48925781 C14.87277818 2.52760771 12.60682235 2.56244983 10.34082031 2.59375 C7.08896633 2.63927027 3.8375424 2.69728576 0.5859375 2.7578125 C-0.43180756 2.76936371 -1.44955261 2.78091492 -2.49813843 2.79281616 C-3.43896271 2.81268585 -4.37978699 2.83255554 -5.34912109 2.85302734 C-6.17962982 2.86635101 -7.01013855 2.87967468 -7.86581421 2.8934021 C-10.11676114 2.99523042 -10.11676114 2.99523042 -11.890625 5.171875 C-12.13605641 7.81975289 -12.26411886 10.37091323 -12.3046875 13.0234375 C-12.32405365 13.79746918 -12.3434198 14.57150085 -12.3633728 15.36898804 C-12.4232233 17.84483775 -12.46957511 20.32073383 -12.515625 22.796875 C-12.55379982 24.47397877 -12.59285125 26.15106284 -12.6328125 27.828125 C-12.72892909 31.94254853 -12.81293939 36.05706386 -12.890625 40.171875 C-13.220625 40.171875 -13.550625 40.171875 -13.890625 40.171875 C-14.13268998 35.11895884 -14.34761994 30.06588523 -14.53759766 25.01074219 C-14.60600997 23.29168024 -14.68179842 21.57289521 -14.76513672 19.85449219 C-14.88373415 17.38252164 -14.9756648 14.91076494 -15.0625 12.4375 C-15.10501892 11.67068909 -15.14753784 10.90387817 -15.19134521 10.11383057 C-15.2828986 6.86826773 -15.09309943 4.55333563 -13.56054688 1.66601562 C-9.20666828 -0.77050019 -4.88827162 -0.20192829 0 0 Z " fill="#D8E0EA" transform="translate(87.890625,66.828125)"/>
</svg>
